<svg xmlns="http://www.w3.org/2000/svg" version="1.1" viewBox="-5.0 -10.0 110.0 135.0">
 <path d="m15.578 35.672h-0.19922c-0.48828 0-0.96094 0.19922-1.3203 0.55078-0.35156 0.32812-0.53125 0.80859-0.53125 1.3008 0 0.64062 0.26953 1.2617 0.73047 1.6992 0.41016 0.39062 0.92188 0.57812 1.4297 0.53906 0.5-0.03125 0.96875-0.23828 1.3281-0.60156 0.39062-0.39062 0.60156-0.89844 0.60156-1.4414 0-1.1289-0.92188-2.0508-2.0391-2.0508z"/>
 <path d="m18.781 22.422c3.5312-1.3984 5.7305-4.5781 5.6289-8.1211-0.14844-4.4297-4.1992-8.1484-9.0391-8.3008-4.3594-0.10156-8.2891 2.6211-9.3516 6.4883-0.070312 0.26172 0.03125 0.48047 0.14062 0.62109 0.21094 0.26953 0.57031 0.44141 0.92969 0.44141h1.9492c0.67969 0 1.3086-0.35938 1.5586-0.89062 0.80859-1.6602 2.5703-2.6992 4.4805-2.6992 0.28906 0 0.58984 0.019531 0.87891 0.070312 2 0.30078 3.6289 1.8516 3.9688 3.75 0.19141 0.98828 0.011719 2.0508-0.48828 2.9414-0.62109 1.1094-1.7695 1.8789-3.1484 2.1094-0.60156 0.10156-1.1719 0.37891-1.6094 0.78125-0.55078 0.51953-0.87109 1.1992-0.87109 1.9297v5.3398c0 0.89844 0.83984 1.6289 1.8516 1.6289 1.0117 0 1.8516-0.73047 1.8516-1.6289v-2.6602c0-0.80078 0.5-1.5 1.2812-1.8008z"/>
 <path d="m59.91 16.238c-4.5586-1.6797-8.2305-5.3516-9.9102-9.9219-1.6797 4.5703-5.3516 8.2383-9.9219 9.9219 4.5703 1.6797 8.2383 5.3516 9.9219 9.9102 1.6797-4.5586 5.3516-8.2305 9.9102-9.9102z"/>
 <path d="m50 94c16.359 0 29.672-13.309 29.672-29.672 0-16.359-13.309-29.672-29.672-29.672-16.359 0-29.68 13.309-29.68 29.672 0 16.359 13.309 29.672 29.68 29.672zm5.1094-33.762h10.23c0.57031 0 1.0195 0.46094 1.0195 1.0195 0 0.55859-0.46094 1.0195-1.0195 1.0195h-10.23c-0.57031 0-1.0195-0.46094-1.0195-1.0195 0-0.55859 0.46094-1.0195 1.0195-1.0195zm4.7109 17.23c0.51953 0.21094 0.78125 0.80859 0.57031 1.3281-0.16016 0.39844-0.53906 0.64062-0.94922 0.64062-0.12891 0-0.26172-0.019531-0.37891-0.070312-2.8594-1.1484-5.9102-1.7383-9.0586-1.7383-3.1484 0-6.2109 0.57812-9.0586 1.7383-0.51953 0.21094-1.1211-0.039063-1.3281-0.57031-0.21094-0.51953 0.039062-1.1211 0.57031-1.3281 3.1016-1.25 6.4102-1.8789 9.8281-1.8789 3.4219 0 6.7305 0.62891 9.8281 1.8789zm-25.18-17.23h10.23c0.57031 0 1.0195 0.46094 1.0195 1.0195 0 0.55859-0.46094 1.0195-1.0195 1.0195h-10.23c-0.57031 0-1.0195-0.46094-1.0195-1.0195 0-0.55859 0.46094-1.0195 1.0195-1.0195z"/>
 <path d="m85.148 35.672h-0.19141c-0.48828 0-0.96094 0.19922-1.3203 0.55078-0.35156 0.32812-0.53125 0.80859-0.53125 1.3008 0 0.64062 0.26172 1.2617 0.73047 1.6992 0.41016 0.39062 0.91016 0.57812 1.4297 0.53906 0.5-0.03125 0.96094-0.23828 1.3203-0.60156 0.39062-0.39062 0.60937-0.89844 0.60937-1.4414 0-1.1289-0.92187-2.0508-2.0508-2.0508z"/>
 <path d="m94 14.301c-0.14844-4.4297-4.2109-8.1484-9.0391-8.3008-4.3516-0.10156-8.3008 2.6211-9.3516 6.4883-0.070313 0.26172 0.03125 0.48047 0.14062 0.62109 0.19922 0.26953 0.55078 0.44141 0.92969 0.44141h1.9492c0.67969 0 1.3086-0.35938 1.5586-0.89062 0.80859-1.6602 2.5703-2.6992 4.4805-2.6992 0.28906 0 0.58984 0.019531 0.87891 0.070312 2 0.30078 3.6289 1.8516 3.9609 3.75 0.19141 0.98828 0.019532 2.0508-0.48047 2.9414-0.62109 1.1094-1.7695 1.8789-3.1484 2.1094-0.60938 0.10156-1.1719 0.37891-1.6094 0.78125-0.55078 0.51953-0.87109 1.1992-0.87109 1.9297v5.3398c0 0.89844 0.83984 1.6289 1.8516 1.6289s1.8516-0.73047 1.8516-1.6289v-2.6602c0-0.80078 0.5-1.5 1.2812-1.8008 3.5312-1.3984 5.7383-4.5781 5.6289-8.1211z"/>
<text x="0.0" y="117.5" font-size="5.0" font-weight="bold" font-family="Arbeit Regular, Helvetica, Arial-Unicode, Arial, Sans-serif" fill="#000000">Created by Zpoliariumz Zydanez</text><text x="0.0" y="122.5" font-size="5.0" font-weight="bold" font-family="Arbeit Regular, Helvetica, Arial-Unicode, Arial, Sans-serif" fill="#000000">from Noun Project</text></svg>