<svg width="308" height="243" viewBox="0 0 308 243" fill="none" xmlns="http://www.w3.org/2000/svg">
<mask id="path-1-outside-1_6895_23112" maskUnits="userSpaceOnUse" x="32.7515" y="0" width="244" height="243" fill="black">
<rect fill="white" x="32.7515" width="244" height="243"/>
<path d="M275.098 121.5C275.098 188.05 221.071 242 154.425 242C87.7787 242 33.7515 188.05 33.7515 121.5C33.7515 54.9497 87.7787 1 154.425 1C221.071 1 275.098 54.9497 275.098 121.5ZM118.223 121.5C118.223 141.465 134.431 157.65 154.425 157.65C174.418 157.65 190.627 141.465 190.627 121.5C190.627 101.535 174.418 85.35 154.425 85.35C134.431 85.35 118.223 101.535 118.223 121.5Z"/>
</mask>
<path d="M275.098 121.5C275.098 188.05 221.071 242 154.425 242C87.7787 242 33.7515 188.05 33.7515 121.5C33.7515 54.9497 87.7787 1 154.425 1C221.071 1 275.098 54.9497 275.098 121.5ZM118.223 121.5C118.223 141.465 134.431 157.65 154.425 157.65C174.418 157.65 190.627 141.465 190.627 121.5C190.627 101.535 174.418 85.35 154.425 85.35C134.431 85.35 118.223 101.535 118.223 121.5Z" fill="#FFFAED"/>
<path d="M275.098 121.5C275.098 188.05 221.071 242 154.425 242C87.7787 242 33.7515 188.05 33.7515 121.5C33.7515 54.9497 87.7787 1 154.425 1C221.071 1 275.098 54.9497 275.098 121.5ZM118.223 121.5C118.223 141.465 134.431 157.65 154.425 157.65C174.418 157.65 190.627 141.465 190.627 121.5C190.627 101.535 174.418 85.35 154.425 85.35C134.431 85.35 118.223 101.535 118.223 121.5Z" stroke="#CACACA" stroke-width="2" mask="url(#path-1-outside-1_6895_23112)"/>
<path d="M258.931 181.75C248.339 200.068 233.106 215.28 214.761 225.856C196.417 236.432 175.607 242 154.425 242C133.242 242 112.433 236.432 94.0881 225.856C75.7434 215.28 60.5099 200.068 49.9186 181.75L123.073 139.575C126.25 145.07 130.82 149.634 136.324 152.807C141.827 155.98 148.07 157.65 154.425 157.65C160.779 157.65 167.022 155.98 172.526 152.807C178.029 149.634 182.599 145.07 185.776 139.575L258.931 181.75Z" fill="#E24F10"/>
<path d="M258.931 61.25C269.526 79.5759 275.102 100.365 275.098 121.526C275.093 142.687 269.508 163.474 258.905 181.795L185.769 139.589C188.95 134.092 190.625 127.856 190.627 121.508C190.628 115.16 188.955 108.923 185.776 103.425L258.931 61.25Z" fill="black"/>
<path d="M154.425 1C175.569 1 196.342 6.54783 214.664 17.0878C232.985 27.6278 248.212 42.79 258.818 61.0556L185.743 103.367C182.561 97.887 177.993 93.3383 172.496 90.1763C167 87.0144 160.768 85.35 154.425 85.35V1Z" fill="#CACACA"/>
<path d="M84.6099 121.961L57.7937 95.1836H0" stroke="#B1B1B1"/>
<path d="M199.265 185.675L226.082 158.897H307.917" stroke="#B1B1B1"/>
<path d="M211.294 46.2451L238.11 19.4673H307.917" stroke="#B1B1B1"/>
</svg>
