<svg xmlns="http://www.w3.org/2000/svg" xmlns:xlink="http://www.w3.org/1999/xlink" version="1.1" x="0px" y="0px" viewBox="0 0 199.428 296.48" style="enable-background:new 0 0 199.428 237.184;" xml:space="preserve"><g><path d="M69.731,129.692c-0.338,5.242-4.719,9.352-9.973,9.352c-0.215,0-0.429-0.008-0.645-0.019   c-1.979-0.129-3.783-0.834-5.271-1.931c-2.655-1.956-4.297-5.173-4.068-8.698c0.17-2.686,0.417-5.276,0.721-7.789   c-0.506,0.034-0.996,0.057-1.495,0.086c-2.84,0.166-5.57,0.26-8.131,0.26h-0.002c-6.743-0.007-12.586-0.573-17.688-1.7v14.22   v90.803c0,7.131,5.781,12.91,12.91,12.91c7.131,0,12.91-5.779,12.91-12.91V141.54h4.842v82.734c0,7.131,5.781,12.91,12.91,12.91   s12.91-5.779,12.91-12.91v-90.803v-19.777V92.161c-1.916,3.554-3.555,7.36-4.935,11.395   C72.045,111.392,70.366,120.113,69.731,129.692z"/><ellipse transform="matrix(0.2268 -0.9739 0.9739 0.2268 16.8779 68.2478)" cx="51.422" cy="23.494" rx="23.489" ry="23.49"/><path d="M91.646,77.049c-0.117-0.143-0.224-0.28-0.339-0.422c-0.854,0.826-1.695,1.672-2.503,2.555   c-2.85,3.138-5.386,6.573-7.612,10.293c3.2,3.727,6.895,7.622,11.091,11.445V77.809C92.071,77.556,91.852,77.3,91.646,77.049z"/><path d="M189.036,101.417c0.239,2.462,0.413,4.975,0.473,7.575c0.044,1.843-0.427,3.577-1.266,5.081   c0.75,1.358,1.181,2.918,1.185,4.579v113.5c0,2.76,2.238,5,4.999,5c2.761,0,5.001-2.24,5.001-5l-0.002-113.5   C199.424,111.174,195.213,104.689,189.036,101.417z"/><path d="M169.061,102.461c-5.206,3.501-8.631,9.444-8.634,16.191c0,2.762,2.238,5,5.001,5c2.761,0,5-2.238,5-5h-0.002   c0.003-1.368,0.299-2.665,0.821-3.84c-1.05-1.539-1.688-3.378-1.734-5.354C169.456,107.033,169.304,104.7,169.061,102.461z"/><path d="M186.948,100.477c-1.041-9.531-3.411-17.452-6.68-23.949c-6.286-12.572-15.862-19.461-23.649-22.844   c-4.514-1.976-8.443-2.893-11.096-3.32c-0.882-0.332-1.832-0.522-2.83-0.522h-0.992c-3.489,4.003-8.127,6.809-13.399,8.037   c-1.908,0.443-3.86,0.67-5.802,0.67c-7.591,0-14.479-3.308-19.181-8.707h-0.97c-1.014,0-1.979,0.195-2.873,0.537   c-0.662,0.072-1.326,0.221-1.977,0.469l-0.002-0.004c-0.661,0.258-7.931,3.121-16.58,10.859c-0.417,0.373-0.834,0.745-1.256,1.141   c-1.36,1.275-2.747,2.665-4.143,4.189c-1.934,2.103-3.872,4.462-5.765,7.081c-5.053,6.995-9.769,15.878-13.144,26.92   c1.132,0.434,2.17,1.07,3.07,1.864c1.869,1.65,3.136,3.979,3.366,6.605c0.478,5.492-3.6,10.35-9.088,10.832   c-0.04,0.004-0.078,0.006-0.117,0.009c-0.445,0.039-0.877,0.067-1.317,0.103c-0.325,2.605-0.58,5.297-0.755,8.078   c-0.147,2.257,0.661,4.352,2.072,5.901c1.346,1.478,3.241,2.46,5.394,2.601c0.175,0.01,0.35,0.016,0.522,0.016   c4.183,0,7.703-3.25,7.977-7.482c0.712-10.733,2.645-19.686,5.257-27.167c1.926-5.518,4.222-10.23,6.671-14.269   c0.055-0.091,0.11-0.181,0.165-0.271c2.425-3.958,4.994-7.263,7.501-10.022c0.919-1.006,1.826-1.912,2.721-2.771   c1.467-1.408,2.895-2.649,4.233-3.703v8.785v22.564v26.621c0,0.045,0.006,0.088,0.006,0.131   c-2.491,12.963-6.427,41.723-6.434,94.266c0,7.18,5.82,13,13.002,13c7.18,0,12.998-5.82,12.998-13   c0-36.289,1.936-60.508,3.814-75.439c0.559-4.428,1.109-8.02,1.604-10.889h6.502c2.16,12.551,5.42,39.299,5.415,86.328   c0,7.18,5.819,13,12.999,13s13.001-5.82,13.001-13c-0.007-52.539-3.941-81.297-6.433-94.262c0.001-0.045,0.007-0.09,0.007-0.135   v-60.73c1.78,0.822,3.662,1.887,5.511,3.287c3.568,2.686,7.118,6.504,9.979,12.395c2.108,4.37,3.835,9.936,4.695,17.075   c0.3,2.49,0.496,5.168,0.564,8.058c0.03,1.251,0.353,2.424,0.89,3.467c1.331,2.585,4.02,4.347,7.106,4.348   c0.064,0,0.126-0.002,0.189-0.004c3.283-0.077,6.054-2.121,7.221-4.978c0.403-0.988,0.618-2.071,0.591-3.206   C187.44,106.047,187.246,103.201,186.948,100.477z"/><path d="M106.099,49.842c5.544,5.414,13.643,7.977,21.749,6.088c4.351-1.013,8.134-3.174,11.106-6.088   c0.644-0.632,1.245-1.302,1.81-2c4.403-5.438,6.345-12.774,4.635-20.117c-2.942-12.633-15.571-20.492-28.206-17.549   c-12.633,2.941-20.491,15.568-17.549,28.203c0.834,3.585,2.45,6.784,4.623,9.463C104.84,48.547,105.453,49.212,106.099,49.842z"/><path d="M40.868,118.952c2.561,0,5.279-0.093,8.132-0.263c0.583-0.034,1.162-0.067,1.757-0.109c0.67-0.047,1.355-0.103,2.042-0.159   c0.33-0.026,0.649-0.047,0.984-0.076c0.02-0.002,0.039-0.006,0.059-0.008c4.37-0.415,7.594-4.277,7.213-8.658   c-0.199-2.263-1.325-4.218-2.967-5.535c-0.615-0.494-1.302-0.895-2.041-1.19c-0.616-0.246-1.265-0.421-1.94-0.507   c-0.56-0.071-1.133-0.089-1.718-0.037c-3.324,0.289-6.378,0.454-9.188,0.514c-0.795,0.018-1.578,0.029-2.332,0.029   c-4.193,0.014-7.75-0.258-10.735-0.704c-2.821-0.422-5.124-1.001-6.953-1.649c-0.914-0.325-1.72-0.666-2.402-1.014   c-0.494-0.252-0.929-0.508-1.307-0.762c-1.555-1.027-2.274-1.928-2.75-2.814c-0.461-0.887-0.713-1.883-0.719-3.258   c-0.146-3.82,2.812-10.371,6.915-15.234c0.087-0.106,0.175-0.207,0.263-0.312v21.25c2.345,0.921,6.296,1.973,12.503,2.35   c0.658,0.04,1.342,0.072,2.053,0.096c0.909,0.03,1.844,0.052,2.841,0.052h0.286c3.446,0,7.263-0.18,11.354-0.537   c0.294-0.025,0.589-0.037,0.879-0.037c0.537,0,1.063,0.054,1.58,0.138c3.663-12.021,8.809-21.281,13.934-28.225   c1.84-2.493,3.676-4.693,5.439-6.61c1.835-2.004,3.653-3.777,5.42-5.367c0.146-0.131,0.295-0.274,0.44-0.403   c-0.17-0.312-0.311-0.575-0.398-0.743c-0.055-0.106-0.096-0.181-0.117-0.225c-0.015-0.03-0.015-0.03-0.015-0.03   c-0.599-1.208-1.463-2.194-2.485-2.932c-1.419-1.238-3.269-1.994-5.3-1.994H31.25c-1.251,0-2.431,0.293-3.488,0.801   c-1.201,0.26-2.281,0.65-3.303,1.09c-3.069,1.369-5.761,3.332-8.436,5.723c-3.969,3.594-7.764,8.188-10.763,13.439   C2.3,80.291,0.039,86.219,0,92.75c-0.006,3.525,0.74,7.258,2.557,10.701c2.711,5.217,7.695,9.301,14.043,11.766   c0.533,0.209,1.093,0.396,1.647,0.588c1.556,0.537,3.199,1.002,4.933,1.398C28.229,118.361,34.046,118.944,40.868,118.952z"/></g><text x="0" y="252.184" fill="#000000" font-size="5px" font-weight="bold" font-family="'Helvetica Neue', Helvetica, Arial-Unicode, Arial, Sans-serif">Created by Gan Khoon Lay</text><text x="0" y="257.18399999999997" fill="#000000" font-size="5px" font-weight="bold" font-family="'Helvetica Neue', Helvetica, Arial-Unicode, Arial, Sans-serif">from the Noun Project</text></svg>