<svg width="75" height="65" viewBox="0 0 75 65" fill="none" xmlns="http://www.w3.org/2000/svg">
<path d="M41.1021 3L37.9029 6.1992L34.7037 3C30.7037 -1 24.3057 -1 20.3057 3C16.3057 7 16.3057 13.398 20.3057 17.398L37.9077 35L55.5097 17.398C59.5097 13.398 59.5097 7 55.5097 3C51.5019 -1 45.1037 -1 41.1037 3H41.1021Z" fill="#E24F10"/>
<path d="M61.6992 32.1985L51.5972 40.3977L49.5972 41.5969C50.898 43.0969 51.5972 44.9953 51.5972 46.9953V48.0969L38.3002 48.1985C37.6986 48.1985 37.1986 47.6985 37.1986 47.0969C37.1986 46.4953 37.6986 45.9953 38.3002 45.9953L49.4022 45.8937C49.203 44.5929 48.6014 43.3937 47.6014 42.4953C47.6014 42.4953 44.3006 39.5969 41.9998 39.5969L33.9998 39.6985C33.9998 39.6985 20.6988 30.8977 8.3008 43.3977L0 52.4993L12.199 64.6013L16.199 60.6013C17.5974 59.2029 19.4998 58.3005 21.4998 58.2029L47.8008 57.1013C49.6992 56.9997 51.6016 56.2028 52.9024 54.8005L73.9024 33.6015C74.1016 33.4023 74.1016 32.9999 73.9024 32.8007C70.6016 29.4999 65.3006 29.1985 61.6992 32.1985Z" fill="#E24F10"/>
</svg>
